<?xml version="1.0" standalone="no"?>
<!DOCTYPE svg PUBLIC "-//W3C//DTD SVG 1.1//EN" "http://www.w3.org/Graphics/SVG/1.1/DTD/svg11.dtd">
<svg xmlns:dc="http://purl.org/dc/elements/1.1/" xmlns:cc="http://creativecommons.org/ns#" xmlns:rdf="http://www.w3.org/1999/02/22-rdf-syntax-ns#" xmlns:svg="http://www.w3.org/2000/svg" xmlns="http://www.w3.org/2000/svg" xmlns:sodipodi="http://sodipodi.sourceforge.net/DTD/sodipodi-0.dtd" xmlns:inkscape="http://www.inkscape.org/namespaces/inkscape" version="1.1" id="svg2" xml:space="preserve" width="1000" height="416.2983093261719" viewBox="0 0 1000 416.29831" sodipodi:docname="PBS_cmyk.svg" inkscape:version="1.0.2 (e86c870879, 2021-01-15)"><metadata id="metadata8"><rdf:RDF><cc:Work rdf:about=""><dc:format>image/svg+xml</dc:format><dc:type rdf:resource="http://purl.org/dc/dcmitype/StillImage"/><dc:title/></cc:Work></rdf:RDF></metadata><defs id="defs6"><clipPath clipPathUnits="userSpaceOnUse" id="clipPath18"><path d="M 0,612 H 792 V 0 H 0 Z" id="path16"/></clipPath></defs><sodipodi:namedview pagecolor="#ffffff" bordercolor="#666666" borderopacity="1" objecttolerance="10" gridtolerance="10" guidetolerance="10" inkscape:pageopacity="0" inkscape:pageshadow="2" inkscape:window-width="1366" inkscape:window-height="705" id="namedview4" showgrid="false" inkscape:zoom="0.63213771" inkscape:cx="477.56615" inkscape:cy="95.999967" inkscape:window-x="-8" inkscape:window-y="-8" inkscape:window-maximized="1" inkscape:current-layer="g10"/><g id="g10" inkscape:groupmode="layer" inkscape:label="PBS_cmyk" transform="matrix(1.3333333,0,0,-1.3333333,-297.39585,503.99997)"><g id="g170"><g id="g112" transform="matrix(1.0471189,0,0,1.0471189,-10.509727,-17.810948)"><g id="g24" transform="matrix(2.0706535,0,0,2.0706535,894.73334,245.51958)"><path d="m 0,0 c -7.875,4.08 -14.242,7.4 -14.242,13.721 0,4.466 3.823,7.242 10.257,7.242 7.643,0 14.423,-2.47 19.622,-5.558 v 16.26 c -5.446,2.343 -12.934,4.313 -19.633,4.313 -19,0 -27.504,-11.317 -27.504,-23.559 0,-14.369 9.675,-21.266 20.348,-26.907 10.524,-5.562 14.506,-7.975 14.506,-13.977 0,-5.08 -4.408,-7.994 -11.792,-7.994 -10.26,0 -17.537,4.744 -22.261,8.536 l 0.013,-17.286 c 4.423,-3.091 13.938,-6.809 22.137,-6.809 18.443,0 30.071,9.623 30.071,25.112 C 21.522,-10.92 7.875,-4.08 0,0" style="fill:#0060af;fill-opacity:1;fill-rule:nonzero;stroke:none" id="path26"/></g><g id="g28" transform="matrix(2.0706535,0,0,2.0706535,591.62715,288.54238)"><path d="m 0,0 h 4.998 c 9.981,0 16.43,-5.775 16.43,-14.712 0,-9.681 -5.941,-15.233 -16.299,-15.233 H 0 Z M 5.776,14.403 H -17 V -71.998 H 0 v 27.485 h 3.425 c 21.286,0 34.51,11.32 34.51,29.541 0,18.393 -12.023,29.375 -32.159,29.375" style="fill:#0060af;fill-opacity:1;fill-rule:nonzero;stroke:none" id="path30"/></g><g id="g32" transform="matrix(2.0706535,0,0,2.0706535,726.72114,169.32512)"><path d="m 0,0 v 22.554 h 10.762 c 8.575,0 13.694,-4.192 13.694,-11.213 C 24.456,3.815 19.321,0 9.194,0 Z m 8.149,57.424 c 6.653,0 10.952,-4.144 10.952,-10.558 0,-6.494 -4.658,-10.691 -11.865,-10.691 H 0 V 57.424 Z M 26.962,32.102 c 5.757,4.039 8.559,9.865 8.559,17.767 0,13.636 -10.023,22.109 -26.158,22.109 h -26.374 v -86.401 h 27.549 c 21.113,0 30.731,13.559 30.731,26.156 0,9.968 -5.45,17.666 -14.307,20.369" style="fill:#0060af;fill-opacity:1;fill-rule:nonzero;stroke:none" id="path34"/></g></g><g id="g120" transform="matrix(1.0471189,0,0,1.0471189,-10.509727,-17.810948)"><g id="g20" transform="matrix(2.0706535,0,0,2.0706535,521.22307,228.91294)"><path d="m 0,0 c 0,-39.766 -32.235,-72 -72,-72 -39.765,0 -72.001,32.234 -72.001,72 0,39.764 32.236,72 72.001,72 C -32.235,72 0,39.764 0,0" style="fill:#0060af;fill-opacity:1;fill-rule:nonzero;stroke:none" id="path22"/></g><g id="g36" transform="matrix(2.0706535,0,0,2.0706535,480.70763,227.45499)"><path d="m 0,0 -7.991,-1.625 v -14.772 c 0,-4.961 -4.081,-8.918 -9.361,-8.918 h -4.087 v -17.181 h -13.15 v 17.181 h 4.087 c 5.28,0 9.361,3.957 9.361,8.918 V -1.625 L -13.15,0 c 1.732,0.353 2.643,2.267 1.824,3.833 l -20.957,40.071 h 13.15 L 1.824,3.833 C 2.643,2.267 1.732,0.353 0,0" style="fill:#ffffff;fill-opacity:1;fill-rule:nonzero;stroke:none" id="path38"/></g><g id="g40" transform="matrix(2.0706535,0,0,2.0706535,368.45874,240.13361)"><path d="m 0,0 c -4.545,0 -8.229,3.685 -8.229,8.229 0,4.545 3.684,8.23 8.229,8.23 4.545,0 8.229,-3.685 8.229,-8.23 C 8.229,3.685 4.545,0 0,0 M 27.273,-2.29 6.316,37.781 h -21.688 c -19.728,0 -36.481,-16.147 -36.012,-35.868 0.35,-14.717 9.845,-25.742 23.041,-29.892 v -20.64 H 4.011 v 17.181 h 4.087 c 5.28,0 9.361,3.957 9.361,8.917 v 14.773 l 7.991,1.625 c 1.732,0.352 2.643,2.267 1.823,3.833" style="fill:#ffffff;fill-opacity:1;fill-rule:nonzero;stroke:none" id="path42"/></g></g></g></g></svg>